<svg width="987" height="978" viewBox="0 0 987 978" fill="none" xmlns="http://www.w3.org/2000/svg">
<circle cx="206.29" cy="91.002" r="58.4426" fill="#DBC19B"/>
<circle cx="809.486" cy="91.002" r="58.4426" fill="#DBC19B"/>
<circle cx="855.557" cy="888.722" r="58.4426" fill="#DBC19B"/>
<circle cx="181.548" cy="888.722" r="58.4426" fill="#DBC19B"/>
<path d="M155.953 433.126C232.205 301.054 187.724 153.995 155.953 96.9743L811.192 80.3374C901.202 207.461 852.256 335.437 773.443 471.945C710.393 581.152 827.795 818.335 894.377 923.275H130.784C107.402 814.922 79.7013 565.197 155.953 433.126Z" fill="#DBC19B"/>
<rect x="205.864" y="32.5594" width="604.049" height="151.865" fill="#DBC19B"/>
<rect x="164.058" y="830.279" width="703.87" height="116.885" fill="#DBC19B"/>
<circle cx="201.171" cy="87.5893" r="45.7045" stroke="black" stroke-width="5"/>
<circle cx="199.892" cy="86.3096" r="53.8096" stroke="black" stroke-width="5"/>
<circle cx="176.856" cy="887.442" r="53.8096" stroke="black" stroke-width="5"/>
<circle cx="200.745" cy="86.3098" r="26.508" stroke="black" stroke-width="5"/>
<circle cx="201.171" cy="87.5893" r="17.5496" stroke="black" stroke-width="5"/>
<line x1="176.854" y1="137.56" x2="837.845" y2="137.213" stroke="black" stroke-width="5"/>
<line x1="176.987" y1="942.194" x2="844.17" y2="941.34" stroke="black" stroke-width="5"/>
<line x1="193.77" y1="33.9536" x2="823.649" y2="33.9536" stroke="black" stroke-width="5"/>
<line x1="164.049" y1="834.209" x2="828.776" y2="825.104" stroke="black" stroke-width="5"/>
<path d="M166.665 832.837C154.187 835.025 128.201 848.672 124.07 885.757" stroke="black" stroke-width="5"/>
<circle cx="177.636" cy="888.984" r="45.9026" stroke="black" stroke-width="5"/>
<path d="M176.346 861.152C191.057 861.152 202.887 872.799 202.887 887.048C202.886 901.297 191.057 912.944 176.346 912.944C161.634 912.944 149.804 901.298 149.804 887.048C149.804 872.799 161.634 861.152 176.346 861.152Z" stroke="black" stroke-width="5"/>
<path d="M176.99 871.478C187.09 871.478 195.142 879.39 195.142 888.984C195.142 898.578 187.09 906.49 176.99 906.49C166.89 906.49 158.839 898.578 158.839 888.984C158.839 879.39 166.89 871.478 176.99 871.478Z" stroke="black" stroke-width="5"/>
<path d="M822.358 33.2268C844.731 45.4888 878.634 83.5655 835.265 137.776C855.056 189.406 866.114 334.872 752.013 503.7C744.483 543.282 749.431 662.847 829.457 824.447C852.045 824.877 897.479 834.515 898.511 869.623C899.802 913.508 893.994 932.224 840.428 941.904" stroke="black" stroke-width="5"/>
<path d="M178.238 134.55C197.844 176.52 222.19 293.554 162.725 425.925C103.26 558.297 113.386 778.169 125.882 871.559" stroke="black" stroke-width="5"/>
</svg>
