<svg width="1200" height="750" viewBox="0 0 1200 750" fill="none" xmlns="http://www.w3.org/2000/svg">
<rect width="1200" height="750" fill="#F8DADA"/>
<path d="M971.625 73.9167H931.792V93.8334H911.875V113.75H891.958V173.5H911.875V193.417H931.792V213.333H951.708V233.25H971.625V253.167H991.542V273.083H1011.46V253.167H1031.37V233.25H1051.29V213.333H1071.21V193.417H1091.12V173.5H1111.04V113.75H1091.12V93.8334H1071.21V73.9167H1031.37V93.8334H1011.46V113.75H991.542V93.8334H971.625V73.9167ZM971.625 93.8334V113.75H991.542V133.667H1011.46V113.75H1031.37V93.8334H1071.21V113.75H1091.12V173.5H1071.21V193.417H1051.29V213.333H1031.37V233.25H1011.46V253.167H991.542V233.25H971.625V213.333H951.708V193.417H931.792V173.5H911.875V113.75H931.792V93.8334H971.625Z" fill="black"/>
<path d="M892.125 543.583H860.958V559.167H845.375V574.75H829.792V621.5H845.375V637.083H860.958V652.667H876.542V668.25H892.125V683.833H907.708V699.417H923.292V683.833H938.875V668.25H954.458V652.667H970.042V637.083H985.625V621.5H1001.21V574.75H985.625V559.167H970.042V543.583H938.875V559.167H923.292V574.75H907.708V559.167H892.125V543.583ZM892.125 559.167V574.75H907.708V590.333H923.292V574.75H938.875V559.167H970.042V574.75H985.625V621.5H970.042V637.083H954.458V652.667H938.875V668.25H923.292V683.833H907.708V668.25H892.125V652.667H876.542V637.083H860.958V621.5H845.375V574.75H860.958V559.167H892.125Z" fill="black"/>
<path d="M1057 348.667H1035.67V359.333H1025V370H1014.33V402H1025V412.667H1035.67V423.333H1046.33V434H1057V444.667H1067.67V455.333H1078.33V444.667H1089V434H1099.67V423.333H1110.33V412.667H1121V402H1131.67V370H1121V359.333H1110.33V348.667H1089V359.333H1078.33V370H1067.67V359.333H1057V348.667ZM1057 359.333V370H1067.67V380.667H1078.33V370H1089V359.333H1110.33V370H1121V402H1110.33V412.667H1099.67V423.333H1089V434H1078.33V444.667H1067.67V434H1057V423.333H1046.33V412.667H1035.67V402H1025V370H1035.67V359.333H1057Z" fill="black"/>
<path d="M163.25 445.5H114.25V470H89.75V494.5H65.25V568H89.75V592.5H114.25V617H138.75V641.5H163.25V666H187.75V690.5H212.25V666H236.75V641.5H261.25V617H285.75V592.5H310.25V568H334.75V494.5H310.25V470H285.75V445.5H236.75V470H212.25V494.5H187.75V470H163.25V445.5ZM163.25 470V494.5H187.75V519H212.25V494.5H236.75V470H285.75V494.5H310.25V568H285.75V592.5H261.25V617H236.75V641.5H212.25V666H187.75V641.5H163.25V617H138.75V592.5H114.25V568H89.75V494.5H114.25V470H163.25Z" fill="black"/>
<path d="M217.5 54H191.5V67H178.5V80H165.5V119H178.5V132H191.5V145H204.5V158H217.5V171H230.5V184H243.5V171H256.5V158H269.5V145H282.5V132H295.5V119H308.5V80H295.5V67H282.5V54H256.5V67H243.5V80H230.5V67H217.5V54ZM217.5 67V80H230.5V93H243.5V80H256.5V67H282.5V80H295.5V119H282.5V132H269.5V145H256.5V158H243.5V171H230.5V158H217.5V145H204.5V132H191.5V119H178.5V80H191.5V67H217.5Z" fill="black"/>
<path d="M99.5 172.333H78.8333V182.667H68.5V193H58.1666V224H68.5V234.333H78.8333V244.667H89.1666V255H99.5V265.333H109.833V275.667H120.167V265.333H130.5V255H140.833V244.667H151.167V234.333H161.5V224H171.833V193H161.5V182.667H151.167V172.333H130.5V182.667H120.167V193H109.833V182.667H99.5V172.333ZM99.5 182.667V193H109.833V203.333H120.167V193H130.5V182.667H151.167V193H161.5V224H151.167V234.333H140.833V244.667H130.5V255H120.167V265.333H109.833V255H99.5V244.667H89.1666V234.333H78.8333V224H68.5V193H78.8333V182.667H99.5Z" fill="black"/>
</svg>
